# Blender v2.77 (sub 0) OBJ File: ''
# www.blender.org
mtllib TestTrack.mtl
o Spline_Plane.001
v 19.722569 0.000000 -29.852680
v 19.836311 0.000000 -24.506783
v 15.760538 0.000000 -1.000000
v 19.836311 0.000000 -15.976096
v 15.059126 0.000000 -35.653549
v 9.713228 0.000000 -40.203251
v 3.571134 0.000000 -41.340675
v -2.229734 0.000000 -40.885704
v -9.168026 0.000000 -37.700912
v -13.945211 0.000000 -33.378696
v -18.381168 0.000000 -26.099176
v -19.859821 0.000000 -18.364687
v -21.565958 0.000000 -4.260616
v -21.907185 0.000000 14.734381
v -19.973562 0.000000 21.558931
v -16.220060 0.000000 26.222374
v -10.874163 0.000000 27.701027
v -4.504583 0.000000 27.587284
v 0.955057 0.000000 24.857464
v 5.049787 0.000000 19.397823
v 10.623170 0.000000 12.345788
v 13.352990 0.000000 5.634980
l 1 5
l 2 1
l 4 2
l 3 4
l 5 6
l 6 7
l 7 8
l 8 9
l 9 10
l 10 11
l 11 12
l 12 13
l 13 14
l 14 15
l 15 16
l 16 17
l 17 18
l 18 19
l 19 20
l 20 21
l 21 22
l 22 3
o Plane
v -50.000000 0.000000 50.000000
v 50.000000 0.000000 50.000000
v -50.000000 0.000000 -50.000000
v 50.000000 0.000000 -50.000000
vt 0.0001 0.0001
vt 0.9999 0.0001
vt 0.9999 0.9999
vt 0.0001 0.9999
vn 0.0000 1.0000 0.0000
usemtl Material.001
s off
f 23/1/1 24/2/1 26/3/1 25/4/1
